<svg xmlns="http://www.w3.org/2000/svg" viewBox="0 0 64 64" width="64" height="64" role="img" aria-label="Argus eye — holding">
  <title>Argus eye — holding (alert, spend held for approval)</title>
  <defs>
    <clipPath id="c-h"><path d="M4,32 Q32,11 60,32 Q32,53 4,32 Z"></path></clipPath>
    <radialGradient id="g-h" cx="50%" cy="42%" r="62%">
      <stop offset="0%" stop-color="#FFBA47"></stop><stop offset="55%" stop-color="#F5A524"></stop><stop offset="100%" stop-color="#C77F12"></stop>
    </radialGradient>
  </defs>
  <g clip-path="url(#c-h)">
    <path d="M4,32 Q32,11 60,32 Q32,53 4,32 Z" fill="#070A0E"></path>
    <circle cx="32" cy="32" r="14" fill="url(#g-h)"></circle>
    <g stroke="#C77F12" stroke-width="0.5" opacity="0.55" stroke-linecap="round"><line x1="36.19" y1="32.29" x2="45.37" y2="32.94"></line><line x1="35.94" y1="33.46" x2="44.56" y2="36.67"></line><line x1="35.37" y1="34.51" x2="42.74" y2="40.02"></line><line x1="34.52" y1="35.36" x2="40.05" y2="42.72"></line><line x1="33.47" y1="35.93" x2="36.70" y2="44.55"></line><line x1="32.31" y1="36.19" x2="32.97" y2="45.36"></line><line x1="31.11" y1="36.11" x2="29.17" y2="45.10"></line><line x1="29.99" y1="35.69" x2="25.59" y2="43.77"></line><line x1="29.03" y1="34.97" x2="22.54" y2="41.49"></line><line x1="28.32" y1="34.02" x2="20.25" y2="38.44"></line><line x1="27.90" y1="32.90" x2="18.91" y2="34.87"></line><line x1="27.81" y1="31.71" x2="18.63" y2="31.06"></line><line x1="28.06" y1="30.54" x2="19.44" y2="27.33"></line><line x1="28.63" y1="29.49" x2="21.26" y2="23.98"></line><line x1="29.48" y1="28.64" x2="23.95" y2="21.28"></line><line x1="30.53" y1="28.07" x2="27.30" y2="19.45"></line><line x1="31.69" y1="27.81" x2="31.03" y2="18.64"></line><line x1="32.89" y1="27.89" x2="34.83" y2="18.90"></line><line x1="34.01" y1="28.31" x2="38.41" y2="20.23"></line><line x1="34.97" y1="29.03" x2="41.46" y2="22.51"></line><line x1="35.68" y1="29.98" x2="43.75" y2="25.56"></line><line x1="36.10" y1="31.10" x2="45.09" y2="29.13"></line></g>
    <circle cx="32" cy="32" r="5.6" fill="none" stroke="#FFBA47" stroke-width="0.6" opacity="0.5"></circle>
    <circle cx="32" cy="32" r="14" fill="none" stroke="#C77F12" stroke-width="1.6"></circle>
    <ellipse cx="32" cy="20.5" rx="14" ry="6" fill="rgba(0,0,0,0.28)"></ellipse>
    <circle cx="32" cy="32" r="3" fill="#070A0E"></circle>
    <circle cx="29" cy="28.8" r="1.2" fill="rgba(255,255,255,0.9)"></circle>
    <circle cx="34.4" cy="34" r="0.8" fill="rgba(255,255,255,0.45)"></circle>
  </g>
  <g fill="none" stroke="#F5A524" stroke-linecap="round" stroke-linejoin="round">
    <path d="M4,32 Q32,11 60,32" stroke-width="2.6"></path><path d="M4,32 Q32,53 60,32" stroke-width="1.9"></path>
  </g>
</svg>